<svg width="100" height="26" viewBox="0 0 100 26" fill="none" xmlns="http://www.w3.org/2000/svg">
<path d="M14.4407 7.42854V25.8019H10.7689V24.2666C9.81605 25.4222 8.43605 26 6.62891 26C5.38034 26 4.24678 25.7193 3.22821 25.1581C2.22607 24.5968 1.4375 23.7962 0.862498 22.7562C0.287499 21.7162 0 20.5111 0 19.1409C0 17.7708 0.287499 16.5657 0.862498 15.5257C1.4375 14.4857 2.22607 13.6851 3.22821 13.1238C4.24678 12.5625 5.38034 12.2819 6.62891 12.2819C8.32105 12.2819 9.64355 12.8184 10.5964 13.8914V7.42854H14.4407ZM7.29427 22.8304C8.26355 22.8304 9.06855 22.5003 9.70926 21.84C10.35 21.1631 10.6703 20.2635 10.6703 19.1409C10.6703 18.0184 10.35 17.127 9.70926 16.4666C9.06855 15.7898 8.26355 15.4514 7.29427 15.4514C6.30856 15.4514 5.49534 15.7898 4.85463 16.4666C4.21392 17.127 3.89356 18.0184 3.89356 19.1409C3.89356 20.2635 4.21392 21.1631 4.85463 21.84C5.49534 22.5003 6.30856 22.8304 7.29427 22.8304Z" fill="white"/>
<path d="M24.3072 26C22.9108 26 21.654 25.7111 20.5369 25.1333C19.4362 24.539 18.5737 23.7219 17.9494 22.6819C17.3251 21.6419 17.013 20.4616 17.013 19.1409C17.013 17.8203 17.3251 16.64 17.9494 15.6C18.5737 14.56 19.4362 13.7511 20.5369 13.1733C21.654 12.579 22.9108 12.2819 24.3072 12.2819C25.7037 12.2819 26.9522 12.579 28.0529 13.1733C29.1536 13.7511 30.0161 14.56 30.6404 15.6C31.2647 16.64 31.5769 17.8203 31.5769 19.1409C31.5769 20.4616 31.2647 21.6419 30.6404 22.6819C30.0161 23.7219 29.1536 24.539 28.0529 25.1333C26.9522 25.7111 25.7037 26 24.3072 26ZM24.3072 22.8304C25.2929 22.8304 26.0979 22.5003 26.7222 21.84C27.3629 21.1631 27.6833 20.2635 27.6833 19.1409C27.6833 18.0184 27.3629 17.127 26.7222 16.4666C26.0979 15.7898 25.2929 15.4514 24.3072 15.4514C23.3215 15.4514 22.5083 15.7898 21.8676 16.4666C21.2269 17.127 20.9065 18.0184 20.9065 19.1409C20.9065 20.2635 21.2269 21.1631 21.8676 21.84C22.5083 22.5003 23.3215 22.8304 24.3072 22.8304Z" fill="white"/>
<path d="M40.5536 26C39.1407 26 37.8675 25.7111 36.7339 25.1333C35.6168 24.539 34.7379 23.7219 34.0972 22.6819C33.4729 21.6419 33.1607 20.4616 33.1607 19.1409C33.1607 17.8203 33.4729 16.64 34.0972 15.6C34.7379 14.56 35.6168 13.7511 36.7339 13.1733C37.8675 12.579 39.1407 12.2819 40.5536 12.2819C41.95 12.2819 43.1657 12.579 44.2007 13.1733C45.2521 13.7511 46.0161 14.5847 46.4925 15.6743L43.5107 17.2838C42.8207 16.0622 41.8268 15.4514 40.5289 15.4514C39.5268 15.4514 38.6971 15.7816 38.04 16.4419C37.3829 17.1022 37.0543 18.0019 37.0543 19.1409C37.0543 20.28 37.3829 21.1797 38.04 21.84C38.6971 22.5003 39.5268 22.8304 40.5289 22.8304C41.8432 22.8304 42.8371 22.2197 43.5107 20.9981L46.4925 22.6324C46.0161 23.6889 45.2521 24.5143 44.2007 25.1085C43.1657 25.7028 41.95 26 40.5536 26Z" fill="white"/>
<path d="M53.3657 26C51.8707 26 50.7043 25.6038 49.8664 24.8114C49.0286 24.0025 48.6096 22.8635 48.6096 21.3943V7.42854H52.4539V21.1714C52.4539 21.7327 52.5936 22.1701 52.8729 22.4838C53.1686 22.7809 53.5793 22.9295 54.105 22.9295C54.3021 22.9295 54.4993 22.9047 54.6964 22.8552C54.91 22.8057 55.0743 22.7479 55.1893 22.6819L55.3618 25.6781C54.7211 25.8927 54.0557 26 53.3657 26Z" fill="white"/>
<path d="M70.6055 12.48V25.8019H66.9583V24.2171C66.449 24.7949 65.8412 25.2406 65.1348 25.5543C64.4283 25.8514 63.6644 26 62.843 26C61.1016 26 59.7216 25.4965 58.703 24.4895C57.6844 23.4825 57.1751 21.9885 57.1751 20.0076V12.48H61.0194V19.4381C61.0194 21.5841 61.9148 22.6571 63.7055 22.6571C64.6255 22.6571 65.3648 22.36 65.9233 21.7657C66.4819 21.1549 66.7612 20.2552 66.7612 19.0666V12.48H70.6055Z" fill="white"/>
<path d="M82.0033 12.2819C83.2355 12.2819 84.3526 12.5708 85.3548 13.1485C86.3733 13.7098 87.1701 14.5104 87.7451 15.5504C88.3201 16.5739 88.6076 17.7708 88.6076 19.1409C88.6076 20.5111 88.3201 21.7162 87.7451 22.7562C87.1701 23.7797 86.3733 24.5803 85.3548 25.1581C84.3526 25.7193 83.2355 26 82.0033 26C80.1798 26 78.7916 25.4222 77.8387 24.2666V25.8019H74.1669V7.42854H78.0112V13.8914C78.9805 12.8184 80.3112 12.2819 82.0033 12.2819ZM81.338 22.8304C82.3237 22.8304 83.1287 22.5003 83.753 21.84C84.3937 21.1631 84.714 20.2635 84.714 19.1409C84.714 18.0184 84.3937 17.127 83.753 16.4666C83.1287 15.7898 82.3237 15.4514 81.338 15.4514C80.3523 15.4514 79.5391 15.7898 78.8983 16.4666C78.2741 17.127 77.9619 18.0184 77.9619 19.1409C77.9619 20.2635 78.2741 21.1631 78.8983 21.84C79.5391 22.5003 80.3523 22.8304 81.338 22.8304Z" fill="white"/>
<path d="M92.4051 0C92.4051 4.10269 89.0047 7.42857 84.8101 7.42857C89.0047 7.42857 92.4051 10.7545 92.4051 14.8571C92.4051 10.7545 95.8054 7.42857 100 7.42857C95.8054 7.42857 92.4051 4.10269 92.4051 0Z" fill="#CD4A4A"/>
</svg>
