<svg width="101" height="33" viewBox="0 0 101 33" fill="none" xmlns="http://www.w3.org/2000/svg">
<g clip-path="url(#clip0_136_5444)">
<path d="M92.957 0.499982H8.04755C7.73805 0.499982 7.43225 0.499982 7.12357 0.501582C6.86517 0.503182 6.60883 0.50783 6.34795 0.511742C5.78119 0.518063 5.21577 0.565323 4.65659 0.65311C4.09821 0.742808 3.55731 0.911914 3.0522 1.15471C2.5477 1.39956 2.08673 1.71772 1.68601 2.09764C1.28318 2.47649 0.947392 2.91439 0.691556 3.39451C0.435013 3.87367 0.257126 4.38713 0.164037 4.91717C0.0700637 5.44653 0.0194957 5.982 0.012787 6.51877C0.00495445 6.76405 0.0041273 7.01014 0 7.25545V25.7469C0.0041273 25.9953 0.00495445 26.2359 0.012787 26.4844C0.0194978 27.0211 0.0700657 27.5566 0.164037 28.0859C0.256869 28.6162 0.434766 29.13 0.691556 29.6093C0.947276 30.0879 1.28311 30.524 1.68601 30.9008C2.08521 31.2824 2.54648 31.6008 3.0522 31.8437C3.5573 32.0872 4.09814 32.2573 4.65659 32.3484C5.21586 32.4355 5.78123 32.4827 6.34795 32.4898C6.60883 32.4953 6.86517 32.4984 7.12357 32.4984C7.43224 32.5 7.73806 32.5 8.04755 32.5H92.957C93.2603 32.5 93.5686 32.5 93.8719 32.4984C94.1291 32.4984 94.3929 32.4953 94.65 32.4898C95.2157 32.4831 95.78 32.4358 96.3381 32.3484C96.8983 32.2567 97.4411 32.0866 97.9487 31.8437C98.4539 31.6006 98.9148 31.2823 99.3136 30.9008C99.7155 30.5226 100.052 30.0867 100.311 29.6093C100.566 29.1297 100.742 28.6159 100.833 28.0859C100.928 27.5565 100.98 27.0212 100.99 26.4844C100.993 26.2359 100.993 25.9953 100.993 25.7469C101 25.4562 101 25.1672 101 24.8718V8.12889C101 7.83592 101 7.54529 100.993 7.25545C100.993 7.01014 100.993 6.76405 100.99 6.51873C100.98 5.98192 100.928 5.44657 100.833 4.91713C100.742 4.38741 100.566 3.87398 100.311 3.39448C99.7899 2.43214 98.9638 1.6488 97.9487 1.15464C97.4411 0.912436 96.8983 0.743374 96.3381 0.653038C95.7801 0.564864 95.2157 0.517588 94.65 0.51163C94.3929 0.507726 94.1291 0.503038 93.8719 0.501478C93.5686 0.499878 93.2603 0.499878 92.957 0.499878V0.499982Z" fill="#A6A6A6"/>
<path d="M7.12769 31.7999C6.87053 31.7999 6.61958 31.7968 6.36444 31.7914C5.83589 31.7849 5.30858 31.7412 4.78683 31.6609C4.30032 31.5815 3.82903 31.4338 3.38849 31.2226C2.952 31.0132 2.55388 30.7386 2.20938 30.4093C1.8599 30.0839 1.56895 29.7065 1.34804 29.2921C1.1247 28.875 0.970139 28.4279 0.889734 27.9664C0.802904 27.4704 0.755926 26.969 0.749204 26.4664C0.743852 26.2976 0.736847 25.7359 0.736847 25.7359V7.25542C0.736847 7.25542 0.744308 6.70229 0.749246 6.53979C0.755682 6.03794 0.802388 5.53727 0.888958 5.04214C0.969511 4.57935 1.12419 4.13095 1.34765 3.71245C1.56775 3.29831 1.85709 2.92064 2.20446 2.5941C2.55145 2.26445 2.95084 1.98843 3.38808 1.77612C3.8276 1.56563 4.29801 1.41894 4.78353 1.34097C5.30699 1.25982 5.83614 1.21595 6.36652 1.20972L7.1281 1.19995H93.8678L94.6385 1.21011C95.164 1.21603 95.6884 1.25951 96.207 1.34018C96.6974 1.41913 97.1728 1.56684 97.6173 1.77846C98.4933 2.20634 99.206 2.88328 99.6556 3.71441C99.8755 4.13001 100.028 4.57476 100.107 5.03354C100.195 5.53274 100.244 6.03734 100.254 6.54331C100.257 6.76987 100.257 7.01323 100.257 7.25542C100.263 7.55542 100.263 7.84097 100.263 8.12885V24.8718C100.263 25.1624 100.263 25.446 100.257 25.732C100.257 25.9921 100.257 26.2304 100.253 26.4757C100.243 26.9727 100.195 27.4682 100.109 27.9585C100.03 28.4234 99.8765 28.874 99.6532 29.2945C99.4307 29.7044 99.1414 30.0786 98.796 30.4031C98.4512 30.7341 98.0524 31.0103 97.6149 31.2211C97.1715 31.4339 96.6969 31.5821 96.207 31.6609C95.6853 31.7417 95.1579 31.7853 94.6294 31.7914C94.3821 31.7968 94.1233 31.7999 93.8719 31.7999L92.957 31.8015L7.12769 31.7999Z" fill="black"/>
<path d="M20.9057 16.7405C20.9147 16.0728 21.1019 15.4181 21.4496 14.8373C21.7974 14.2565 22.2945 13.7686 22.8947 13.4188C22.5134 12.9027 22.0104 12.478 21.4256 12.1783C20.8409 11.8787 20.1904 11.7124 19.526 11.6927C18.1087 11.5517 16.7346 12.4966 16.0124 12.4966C15.2762 12.4966 14.1642 11.7067 12.9667 11.73C12.1922 11.7538 11.4373 11.9672 10.7757 12.3497C10.1141 12.7321 9.56827 13.2705 9.19144 13.9123C7.55909 16.5911 8.77668 20.5279 10.3403 22.6932C11.1227 23.7535 12.037 24.9378 13.2334 24.8958C14.4041 24.8498 14.8413 24.1883 16.2545 24.1883C17.6545 24.1883 18.0647 24.8958 19.2854 24.8691C20.5416 24.8498 21.3331 23.8041 22.088 22.7338C22.6501 21.9783 23.0826 21.1434 23.3696 20.2598C22.6397 19.9672 22.0169 19.4775 21.5788 18.8517C21.1406 18.2258 20.9065 17.4916 20.9057 16.7405Z" fill="white"/>
<path d="M18.6001 10.2687C19.285 9.48933 19.6225 8.48758 19.5408 7.4762C18.4943 7.58037 17.5277 8.05442 16.8335 8.80388C16.4941 9.17002 16.2341 9.59597 16.0685 10.0574C15.9028 10.5188 15.8348 11.0066 15.8682 11.493C16.3916 11.4981 16.9094 11.3906 17.3826 11.1785C17.8558 10.9664 18.2721 10.6554 18.6001 10.2687Z" fill="white"/>
<path d="M35.7043 22.2116H31.7092L30.7498 24.8968H29.0576L32.8417 14.9624H34.5999L38.384 24.8968H36.6629L35.7043 22.2116ZM32.123 20.9726H35.2898L33.7287 16.6148H33.685L32.123 20.9726Z" fill="white"/>
<path d="M46.5564 21.2757C46.5564 23.5264 45.2854 24.9725 43.3674 24.9725C42.8815 24.9966 42.3983 24.8905 41.9731 24.6664C41.5479 24.4423 41.1978 24.1092 40.9631 23.7053H40.9268V27.2928H39.3582V17.6538H40.8765V18.8585H40.9054C41.1509 18.4565 41.5069 18.1251 41.9353 17.8997C42.3638 17.6742 42.8487 17.563 43.3385 17.578C45.278 17.578 46.5564 19.0311 46.5564 21.2757ZM44.9442 21.2757C44.9442 19.8093 44.1446 18.8452 42.9248 18.8452C41.7263 18.8452 40.9202 19.8296 40.9202 21.2757C40.9202 22.735 41.7263 23.7124 42.9248 23.7124C44.1446 23.7124 44.9442 22.7553 44.9442 21.2757Z" fill="white"/>
<path d="M54.967 21.2757C54.967 23.5264 53.696 24.9725 51.778 24.9725C51.2921 24.9966 50.8089 24.8905 50.3837 24.6664C49.9585 24.4423 49.6084 24.1092 49.3737 23.7053H49.3374V27.2928H47.7688V17.6538H49.2871V18.8585H49.3159C49.5615 18.4565 49.9175 18.1251 50.3459 17.8997C50.7744 17.6742 51.2593 17.563 51.7491 17.578C53.6886 17.578 54.967 19.0311 54.967 21.2757ZM53.3548 21.2757C53.3548 19.8093 52.5553 18.8452 51.3354 18.8452C50.1369 18.8452 49.3308 19.8296 49.3308 21.2757C49.3308 22.735 50.1369 23.7124 51.3354 23.7124C52.5553 23.7124 53.3548 22.7553 53.3548 21.2757H53.3548Z" fill="white"/>
<path d="M60.5257 22.1288C60.642 23.114 61.6517 23.7608 63.0314 23.7608C64.3535 23.7608 65.3047 23.114 65.3047 22.2257C65.3047 21.4546 64.731 20.9929 63.3727 20.6764L62.0143 20.3663C60.0897 19.9257 59.1962 19.0725 59.1962 17.6882C59.1962 15.9741 60.7722 14.7968 63.01 14.7968C65.2247 14.7968 66.743 15.9741 66.7941 17.6882H65.2107C65.116 16.6968 64.2513 16.0983 62.9877 16.0983C61.7242 16.0983 60.8595 16.7038 60.8595 17.585C60.8595 18.2874 61.4118 18.7007 62.7627 19.017L63.9175 19.2858C66.0679 19.7678 66.9614 20.5866 66.9614 22.0397C66.9614 23.8983 65.3995 25.0624 62.9152 25.0624C60.5908 25.0624 59.0215 23.9256 58.9201 22.1288L60.5257 22.1288Z" fill="white"/>
<path d="M70.3466 15.9398V17.6539H71.7998V18.8312H70.3466V22.8242C70.3466 23.4445 70.6376 23.7336 71.2764 23.7336C71.4489 23.7307 71.6211 23.7192 71.7924 23.6992V24.8695C71.5052 24.9203 71.2133 24.9434 70.9211 24.9382C69.374 24.9382 68.7707 24.3874 68.7707 22.9828V18.8312H67.6596V17.6539H68.7707V15.9398H70.3466Z" fill="white"/>
<path d="M72.6414 21.2758C72.6414 18.9969 74.0574 17.5648 76.2656 17.5648C78.4812 17.5648 79.8906 18.9968 79.8906 21.2758C79.8906 23.5609 78.4886 24.9867 76.2656 24.9867C74.0434 24.9867 72.6414 23.5609 72.6414 21.2758ZM78.2924 21.2758C78.2924 19.7125 77.5366 18.7898 76.2656 18.7898C74.9946 18.7898 74.2396 19.7195 74.2396 21.2758C74.2396 22.8453 74.9946 23.7609 76.2656 23.7609C77.5366 23.7609 78.2924 22.8453 78.2924 21.2758H78.2924Z" fill="white"/>
<path d="M81.1838 17.6538H82.6799V18.8866H82.7161C82.8174 18.5016 83.0553 18.1613 83.3901 17.923C83.7248 17.6847 84.1359 17.5629 84.5542 17.578C84.735 17.5774 84.9152 17.5961 85.0916 17.6335V19.0241C84.8634 18.958 84.6254 18.9277 84.3869 18.9343C84.159 18.9255 83.9318 18.9636 83.7209 19.0459C83.5101 19.1282 83.3205 19.2528 83.1652 19.4111C83.0099 19.5694 82.8926 19.7577 82.8214 19.9631C82.7501 20.1684 82.7266 20.3859 82.7524 20.6007V24.8968H81.1838L81.1838 17.6538Z" fill="white"/>
<path d="M92.3235 22.7695C92.1125 24.0843 90.7616 24.9867 89.0331 24.9867C86.8101 24.9867 85.4304 23.575 85.4304 21.3101C85.4304 19.0383 86.8176 17.5648 88.9672 17.5648C91.0814 17.5648 92.4109 18.9414 92.4109 21.1375V21.6469H87.0137V21.7367C86.9888 22.0033 87.024 22.2718 87.117 22.5245C87.21 22.7771 87.3587 23.0082 87.5531 23.2022C87.7475 23.3962 87.9833 23.5488 88.2447 23.6499C88.5062 23.7509 88.7873 23.7981 89.0694 23.7883C89.4401 23.8212 89.8121 23.7398 90.13 23.5562C90.448 23.3727 90.6949 23.0968 90.8341 22.7695L92.3235 22.7695ZM87.0212 20.6078H90.8415C90.8556 20.3681 90.8173 20.1283 90.7289 19.9033C90.6406 19.6783 90.5041 19.4731 90.3281 19.3005C90.1521 19.1279 89.9404 18.9916 89.7062 18.9002C89.472 18.8089 89.2204 18.7644 88.9672 18.7695C88.7118 18.7681 88.4586 18.8146 88.2222 18.9064C87.9858 18.9982 87.771 19.1334 87.5901 19.3043C87.4091 19.4752 87.2657 19.6784 87.1681 19.9021C87.0704 20.1259 87.0205 20.3657 87.0212 20.6078V20.6078Z" fill="white"/>
<path d="M31.0082 9.50278H31.6816C31.7975 9.51647 31.9152 9.50724 32.0272 9.47569C32.1391 9.44413 32.243 9.39093 32.3322 9.31944C32.4214 9.24795 32.494 9.15972 32.5455 9.06031C32.5969 8.96091 32.6261 8.85247 32.6311 8.74185C32.6311 8.30162 32.2817 8.01724 31.689 8.01724C31.5703 8.00151 31.4494 8.0085 31.3335 8.03778C31.2176 8.06707 31.1091 8.11807 31.0144 8.18776C30.9197 8.25745 30.8406 8.34443 30.7819 8.44355C30.7233 8.54268 30.6861 8.65194 30.6727 8.7649H29.9334C29.9461 8.55986 30.0032 8.3595 30.1012 8.17629C30.1991 7.99308 30.3358 7.83095 30.5028 7.69998C30.6697 7.56902 30.8633 7.47203 31.0715 7.41505C31.2797 7.35808 31.498 7.34233 31.7129 7.3688C32.7045 7.3688 33.4027 7.89497 33.4027 8.65239C33.405 8.90614 33.3154 9.15296 33.1489 9.35166C32.9824 9.55036 32.749 9.68891 32.4877 9.74419V9.80044C32.7975 9.81346 33.0892 9.9422 33.2991 10.1585C33.509 10.3748 33.62 10.6611 33.6079 10.9547C33.585 11.1659 33.5178 11.3705 33.4104 11.5567C33.3029 11.7429 33.1573 11.9069 32.9821 12.0391C32.807 12.1712 32.6057 12.2689 32.3902 12.3264C32.1746 12.3839 31.9491 12.4001 31.7269 12.3739C31.5043 12.4027 31.2778 12.3886 31.061 12.3327C30.8441 12.2767 30.6414 12.1799 30.4649 12.0481C30.2884 11.9163 30.1416 11.7522 30.0335 11.5654C29.9253 11.3787 29.8579 11.1733 29.8353 10.9614H30.5862C30.6315 11.418 31.0741 11.7126 31.7269 11.7126C32.3797 11.7126 32.8059 11.3817 32.8059 10.9153C32.8059 10.4423 32.4045 10.1509 31.703 10.1509H31.0082V9.50278Z" fill="white"/>
<path d="M34.461 11.2395C34.461 10.5911 34.9712 10.2173 35.8745 10.1642L36.904 10.1079V9.79697C36.904 9.4165 36.6395 9.20166 36.126 9.20166C35.7072 9.20166 35.4179 9.34736 35.3338 9.60205H34.6077C34.6843 8.9833 35.2992 8.58643 36.1614 8.58643C37.1142 8.58643 37.6516 9.03603 37.6516 9.79697V12.2583H36.9288V11.7521H36.8694C36.749 11.9336 36.5798 12.0817 36.3793 12.1811C36.1787 12.2804 35.9539 12.3276 35.7278 12.3176C35.5683 12.3334 35.407 12.3172 35.2545 12.2703C35.1019 12.2233 34.9614 12.1466 34.842 12.045C34.7227 11.9434 34.6271 11.8193 34.5615 11.6805C34.4958 11.5418 34.4616 11.3916 34.461 11.2395ZM36.904 10.9317V10.6306L35.9759 10.6868C35.4525 10.72 35.2151 10.8888 35.2151 11.2063C35.2151 11.5306 35.5118 11.7192 35.9199 11.7192C36.0394 11.7307 36.1602 11.7193 36.275 11.6856C36.3898 11.6519 36.4963 11.5967 36.5881 11.5232C36.6799 11.4498 36.7552 11.3595 36.8095 11.2579C36.8638 11.1563 36.8959 11.0454 36.904 10.9317Z" fill="white"/>
<path d="M39.6422 9.25432V12.2582H38.8921V8.65588H41.3946V9.25428L39.6422 9.25432Z" fill="white"/>
<path d="M45.9403 10.4556C45.9403 11.6001 45.3295 12.3177 44.3701 12.3177C44.1346 12.3329 43.8993 12.2841 43.6921 12.1769C43.4849 12.0697 43.3143 11.9086 43.2005 11.7126H43.1411V13.4559H42.3911V8.65595H43.1131V9.25128H43.1691C43.2851 9.04844 43.4579 8.87991 43.6685 8.76431C43.8791 8.6487 44.1193 8.59053 44.3627 8.5962C45.3295 8.59618 45.9403 9.31063 45.9403 10.4556ZM45.1688 10.4556C45.1688 9.69462 44.7888 9.23485 44.1533 9.23485C43.522 9.23485 43.1271 9.70438 43.1271 10.4587C43.1271 11.2095 43.5219 11.6794 44.15 11.6794C44.7888 11.6794 45.1688 11.2196 45.1688 10.4556Z" fill="white"/>
<path d="M46.9392 13.5485V12.9364C47.0204 12.9461 47.1022 12.9506 47.184 12.9496C47.3438 12.9609 47.5024 12.9157 47.6292 12.823C47.7561 12.7302 47.8423 12.5963 47.8714 12.4469L47.9275 12.2715L46.5518 8.65588H47.3686L48.3215 11.5172H48.3809L49.3304 8.65588H50.1258L48.7089 12.4071C48.3842 13.2836 48.0248 13.5649 47.25 13.5649C47.1873 13.5649 47.0093 13.5582 46.9392 13.5485Z" fill="white"/>
<path d="M50.7102 11.236H51.4569C51.5303 11.5536 51.8444 11.7192 52.2837 11.7192C52.7832 11.7192 53.0898 11.5106 53.0898 11.1864C53.0898 10.8391 52.8145 10.6735 52.2837 10.6735H51.7149V10.1212H52.2738C52.7271 10.1212 52.9579 9.95593 52.9579 9.65476C52.9579 9.39031 52.7345 9.18836 52.2738 9.18836C51.8542 9.18836 51.5476 9.35712 51.499 9.64149H50.7761C50.8302 9.31472 51.0173 9.02111 51.2974 8.8238C51.5775 8.62649 51.9281 8.54125 52.2738 8.58641C53.1771 8.58641 53.694 8.97352 53.694 9.58212C53.6982 9.75159 53.6409 9.9173 53.5317 10.0515C53.4224 10.1858 53.2679 10.2804 53.0939 10.3196V10.3759C53.3011 10.4012 53.4912 10.4977 53.6283 10.6471C53.7653 10.7965 53.8397 10.9884 53.8374 11.1864C53.8374 11.8712 53.2225 12.3243 52.2837 12.3243C51.4536 12.3243 50.7794 11.9637 50.7102 11.236Z" fill="white"/>
<path d="M54.9175 12.2582V8.65588H55.661V11.1336H55.7204L57.4719 8.65589H58.2154V12.2582H57.4719V9.76723H57.4158L55.661 12.2582L54.9175 12.2582Z" fill="white"/>
<path d="M62.3111 9.25441H61.1142V12.2583H60.3633V9.25441H59.1665V8.65601H62.3111V9.25441Z" fill="white"/>
<path d="M66.3515 11.2856C66.2493 11.6148 66.0283 11.8995 65.7272 12.09C65.426 12.2805 65.0638 12.3647 64.7038 12.3278C64.4534 12.334 64.2046 12.2886 63.9746 12.1946C63.7446 12.1005 63.5389 11.9602 63.3719 11.7833C63.2049 11.6064 63.0804 11.3971 63.0073 11.1701C62.9341 10.943 62.9139 10.7036 62.9482 10.4684C62.9148 10.2325 62.9354 9.99254 63.0084 9.7648C63.0814 9.53707 63.2051 9.32685 63.3713 9.14839C63.5375 8.96994 63.7421 8.8274 63.9715 8.73043C64.2008 8.63347 64.4494 8.58433 64.7005 8.58636C65.758 8.58636 66.3968 9.27116 66.3968 10.4024V10.6504H63.7131V10.6903C63.7012 10.8225 63.7186 10.9556 63.7643 11.0811C63.8099 11.2065 63.8827 11.3216 63.978 11.4188C64.0734 11.516 64.1891 11.5932 64.3178 11.6454C64.4465 11.6977 64.5853 11.7239 64.7253 11.7223C64.9046 11.7426 65.0862 11.7119 65.247 11.6342C65.4079 11.5564 65.5407 11.4351 65.6286 11.2856L66.3515 11.2856ZM63.7131 10.1247H65.6319C65.6414 10.0038 65.6241 9.88243 65.5812 9.7683C65.5382 9.65416 65.4706 9.54981 65.3825 9.46193C65.2945 9.37405 65.1881 9.30459 65.07 9.25801C64.952 9.21143 64.825 9.18876 64.6972 9.19145C64.5675 9.18978 64.4387 9.21278 64.3184 9.25909C64.1982 9.3054 64.089 9.37408 63.9973 9.46108C63.9055 9.54807 63.8331 9.65162 63.7843 9.76559C63.7355 9.87957 63.7113 10.0017 63.7131 10.1247H63.7131Z" fill="white"/>
<path d="M69.5315 8.65588H71.2451C71.9885 8.65588 72.4246 9.01292 72.4246 9.57188C72.4257 9.74925 72.3626 9.92161 72.2457 10.0601C72.1288 10.1986 71.9653 10.2949 71.7825 10.3328V10.3891C72.0044 10.4024 72.2125 10.4959 72.3638 10.6505C72.515 10.805 72.5979 11.0088 72.5952 11.2195C72.5952 11.8481 72.0965 12.2582 71.2624 12.2582H69.5315V8.65588ZM70.2749 9.20159V10.1344H71.0184C71.4717 10.1344 71.6885 9.96916 71.6885 9.66447C71.6885 9.38361 71.4998 9.20158 71.1017 9.20158L70.2749 9.20159ZM70.2749 10.6571V11.7125H71.1643C71.6078 11.7125 71.8452 11.527 71.8452 11.1864C71.8452 10.8258 71.5765 10.6571 71.0703 10.6571L70.2749 10.6571Z" fill="white"/>
</g>
<defs>
<clipPath id="clip0_136_5444">
<rect width="101" height="32" fill="white" transform="translate(0 0.5)"/>
</clipPath>
</defs>
</svg>
