<svg width="110" height="33" viewBox="0 0 110 33" fill="none" xmlns="http://www.w3.org/2000/svg">
<g clip-path="url(#clip0_136_5476)">
<path d="M105.926 0.5H4.07407C1.82403 0.5 0 2.29086 0 4.5V28.5C0 30.7091 1.82403 32.5 4.07407 32.5H105.926C108.176 32.5 110 30.7091 110 28.5V4.5C110 2.29086 108.176 0.5 105.926 0.5Z" fill="black"/>
<path d="M105.926 1.14C106.834 1.14 107.704 1.494 108.346 2.12412C108.988 2.75424 109.348 3.60887 109.348 4.5V28.5C109.348 29.3911 108.988 30.2458 108.346 30.8759C107.704 31.506 106.834 31.86 105.926 31.86H4.07407C3.16644 31.86 2.29599 31.506 1.6542 30.8759C1.01241 30.2458 0.651852 29.3911 0.651852 28.5V4.5C0.651852 3.60887 1.01241 2.75424 1.6542 2.12412C2.29599 1.494 3.16644 1.14 4.07407 1.14H105.926ZM105.926 0.5H4.07407C2.99356 0.5 1.95731 0.921427 1.19327 1.67157C0.429232 2.42172 0 3.43913 0 4.5V28.5C0 29.5609 0.429232 30.5783 1.19327 31.3284C1.95731 32.0786 2.99356 32.5 4.07407 32.5H105.926C107.006 32.5 108.043 32.0786 108.807 31.3284C109.571 30.5783 110 29.5609 110 28.5V4.5C110 3.43913 109.571 2.42172 108.807 1.67157C108.043 0.921427 107.006 0.5 105.926 0.5Z" fill="#A6A6A6"/>
<path d="M55.5214 17.9C54.8349 17.9016 54.1643 18.103 53.5944 18.4788C53.0244 18.8546 52.5808 19.3879 52.3196 20.0112C52.0584 20.6345 51.9913 21.3199 52.1268 21.9807C52.2623 22.6415 52.5943 23.248 53.0809 23.7234C53.5675 24.1989 54.1868 24.5221 54.8604 24.652C55.534 24.782 56.2318 24.7129 56.8654 24.4535C57.4991 24.1941 58.0402 23.756 58.4202 23.1947C58.8003 22.6334 59.0023 21.974 59.0007 21.3C59.0073 20.8503 58.9218 20.404 58.7491 19.9875C58.5764 19.571 58.3201 19.1928 57.9954 18.8756C57.6708 18.5584 57.2845 18.3085 56.8594 18.1409C56.4344 17.9733 55.9794 17.8914 55.5214 17.9ZM55.5214 23.364C55.1006 23.3929 54.6807 23.2968 54.3163 23.0883C53.9518 22.8798 53.6597 22.5684 53.4779 22.1947C53.2961 21.821 53.2329 21.4023 53.2967 20.9929C53.3605 20.5835 53.5483 20.2024 53.8356 19.8992C54.1229 19.596 54.4964 19.3846 54.9077 19.2926C55.319 19.2006 55.7489 19.2322 56.1417 19.3833C56.5344 19.5343 56.8718 19.7979 57.1099 20.1398C57.3481 20.4816 57.476 20.8858 57.477 21.3C57.4901 21.5624 57.4496 21.8247 57.3578 22.0715C57.266 22.3183 57.1248 22.5446 56.9426 22.7369C56.7603 22.9293 56.5407 23.0839 56.2966 23.1916C56.0525 23.2993 55.789 23.3579 55.5214 23.364ZM47.9274 17.9C47.2408 17.9016 46.5702 18.103 46.0003 18.4788C45.4304 18.8546 44.9867 19.3879 44.7255 20.0112C44.4643 20.6345 44.3972 21.3199 44.5327 21.9807C44.6682 22.6415 45.0003 23.248 45.4868 23.7234C45.9734 24.1989 46.5927 24.5221 47.2663 24.652C47.94 24.782 48.6377 24.7129 49.2714 24.4535C49.905 24.1941 50.4461 23.756 50.8262 23.1947C51.2062 22.6334 51.4082 21.974 51.4066 21.3C51.4133 20.8503 51.3277 20.404 51.155 19.9875C50.9823 19.571 50.726 19.1928 50.4013 18.8756C50.0767 18.5584 49.6904 18.3085 49.2654 18.1409C48.8403 17.9733 48.3853 17.8914 47.9274 17.9ZM47.9274 23.364C47.5066 23.3929 47.0867 23.2968 46.7222 23.0883C46.3578 22.8798 46.0656 22.5684 45.8838 22.1947C45.702 21.821 45.6389 21.4023 45.7026 20.9929C45.7664 20.5835 45.9542 20.2024 46.2415 19.8992C46.5288 19.596 46.9023 19.3846 47.3136 19.2926C47.7249 19.2006 48.1548 19.2322 48.5476 19.3833C48.9403 19.5343 49.2777 19.7979 49.5158 20.1398C49.754 20.4816 49.8819 20.8858 49.8829 21.3C49.896 21.5624 49.8555 21.8247 49.7637 22.0715C49.6719 22.3183 49.5308 22.5446 49.3485 22.7369C49.1663 22.9293 48.9466 23.0839 48.7025 23.1916C48.4585 23.2993 48.1949 23.3579 47.9274 23.364ZM38.8992 18.948V20.388H42.4192C42.364 21.0662 42.0769 21.7062 41.6044 22.204C41.2513 22.5572 40.8266 22.8337 40.3578 23.0156C39.889 23.1975 39.3866 23.2808 38.8829 23.26C37.8456 23.26 36.8508 22.8554 36.1173 22.1353C35.3839 21.4151 34.9718 20.4384 34.9718 19.42C34.9718 18.4016 35.3839 17.4248 36.1173 16.7047C36.8508 15.9846 37.8456 15.58 38.8829 15.58C39.8774 15.5655 40.8376 15.9362 41.5555 16.612L42.5903 15.596C42.1047 15.1244 41.5281 14.7527 40.8942 14.5027C40.2604 14.2527 39.5822 14.1294 38.8992 14.14C38.1748 14.1123 37.4522 14.2285 36.7747 14.4816C36.0971 14.7346 35.4786 15.1194 34.9561 15.6128C34.4337 16.1062 34.018 16.6981 33.7341 17.3529C33.4502 18.0078 33.3038 18.7122 33.3038 19.424C33.3038 20.1357 33.4502 20.8401 33.7341 21.495C34.018 22.1499 34.4337 22.7418 34.9561 23.2352C35.4786 23.7286 36.0971 24.1133 36.7747 24.3664C37.4522 24.6195 38.1748 24.7357 38.8992 24.708C39.5962 24.7353 40.2912 24.6176 40.9386 24.3625C41.586 24.1074 42.1711 23.7208 42.6555 23.228C43.5112 22.3051 43.9671 21.0913 43.9266 19.844C43.9295 19.5438 43.905 19.2439 43.8533 18.948H38.8992ZM75.8185 20.068C75.606 19.4542 75.2086 18.9182 74.679 18.5311C74.1493 18.1439 73.5124 17.9238 72.8525 17.9C72.4068 17.8991 71.9657 17.988 71.5564 18.1612C71.147 18.3344 70.7783 18.5882 70.4728 18.9068C70.1673 19.2255 69.9316 19.6023 69.7804 20.0139C69.6291 20.4255 69.5654 20.8632 69.5933 21.3C69.5863 22.0303 69.8202 22.7432 70.2599 23.3322C70.6996 23.9212 71.3217 24.3548 72.0331 24.5681C72.7444 24.7814 73.507 24.7631 74.2069 24.5158C74.9068 24.2684 75.5065 23.8055 75.9162 23.196L74.7348 22.396C74.5586 22.6842 74.3088 22.9222 74.0101 23.0864C73.7114 23.2506 73.3741 23.3353 73.0318 23.332C72.6786 23.3463 72.3293 23.2554 72.0298 23.0712C71.7302 22.887 71.4944 22.6182 71.3533 22.3L75.9896 20.42L75.8185 20.068ZM71.0925 21.204C71.076 20.9555 71.1102 20.7063 71.193 20.4709C71.2758 20.2355 71.4056 20.0187 71.5748 19.8332C71.744 19.6477 71.9493 19.4972 72.1784 19.3905C72.4076 19.2839 72.6562 19.2232 72.9096 19.212C73.1721 19.1963 73.4335 19.2569 73.6611 19.3864C73.8887 19.5159 74.0723 19.7085 74.1888 19.94L71.0925 21.204ZM67.3281 24.5H68.8518V14.5H67.3281V24.5ZM64.8348 18.66H64.7777C64.5501 18.4055 64.2692 18.2022 63.9542 18.0642C63.6392 17.9261 63.2975 17.8564 62.9525 17.86C62.0621 17.9024 61.2224 18.2795 60.6075 18.9133C59.9926 19.547 59.6496 20.3887 59.6496 21.264C59.6496 22.1393 59.9926 22.981 60.6075 23.6147C61.2224 24.2484 62.0621 24.6256 62.9525 24.668C63.298 24.6748 63.6407 24.6066 63.9562 24.4683C64.2717 24.33 64.5522 24.125 64.7777 23.868H64.8348V24.356C64.8348 25.66 64.1259 26.356 62.9851 26.356C62.6041 26.3478 62.2341 26.2285 61.9222 26.0135C61.6102 25.7984 61.3705 25.4971 61.2333 25.148L59.9133 25.684C60.1573 26.2858 60.5816 26.8007 61.1301 27.1607C61.6786 27.5206 62.3255 27.7087 62.9851 27.7C64.7696 27.7 66.2444 26.668 66.2444 24.156V18.1H64.8348V18.66ZM63.0829 23.364C62.5491 23.3313 62.048 23.1001 61.6817 22.7173C61.3154 22.3346 61.1115 21.8292 61.1115 21.304C61.1115 20.7788 61.3154 20.2734 61.6817 19.8907C62.048 19.5079 62.5491 19.2767 63.0829 19.244C63.3438 19.255 63.5999 19.3175 63.8357 19.4277C64.0715 19.5379 64.2824 19.6935 64.4557 19.8853C64.629 20.0771 64.7613 20.3012 64.8446 20.5443C64.9279 20.7873 64.9606 21.0443 64.9407 21.3C64.9629 21.5565 64.9319 21.8149 64.8496 22.0593C64.7672 22.3038 64.6352 22.5293 64.4616 22.7222C64.2879 22.9152 64.0762 23.0715 63.8392 23.1818C63.6023 23.2921 63.345 23.3541 63.0829 23.364ZM82.9562 14.5H79.3059V24.5H80.8296V20.708H82.9562C83.3905 20.7386 83.8265 20.6811 84.2371 20.539C84.6478 20.3969 85.0242 20.1732 85.3428 19.882C85.6615 19.5908 85.9157 19.2382 86.0895 18.8463C86.2633 18.4543 86.353 18.0314 86.353 17.604C86.353 17.1765 86.2633 16.7536 86.0895 16.3617C85.9157 15.9698 85.6615 15.6172 85.3428 15.326C85.0242 15.0348 84.6478 14.8111 84.2371 14.669C83.8265 14.5269 83.3905 14.4694 82.9562 14.5ZM82.9562 19.3H80.8296V15.892H82.9888C83.2178 15.892 83.4446 15.9363 83.6561 16.0223C83.8677 16.1083 84.0599 16.2344 84.2218 16.3934C84.3837 16.5524 84.5122 16.7411 84.5998 16.9488C84.6874 17.1565 84.7325 17.3792 84.7325 17.604C84.7325 17.8288 84.6874 18.0514 84.5998 18.2591C84.5122 18.4669 84.3837 18.6556 84.2218 18.8146C84.0599 18.9735 83.8677 19.0996 83.6561 19.1857C83.4446 19.2717 83.2178 19.316 82.9888 19.316L82.9562 19.3ZM92.3592 17.868C91.8043 17.8344 91.2516 17.9612 90.7693 18.2328C90.2871 18.5044 89.8965 18.9088 89.6459 19.396L90.9903 19.948C91.1262 19.7075 91.33 19.5108 91.5773 19.3816C91.8245 19.2524 92.1046 19.1963 92.3837 19.22C92.5771 19.1978 92.7731 19.2137 92.9602 19.2666C93.1473 19.3196 93.3218 19.4087 93.4735 19.5286C93.6252 19.6484 93.751 19.7968 93.8437 19.965C93.9364 20.1331 93.994 20.3177 94.0133 20.508V20.604C93.5233 20.3511 92.9779 20.2193 92.4244 20.22C90.974 20.22 89.4911 21.02 89.4911 22.476C89.5054 22.7855 89.583 23.089 89.7191 23.3684C89.8552 23.6479 90.0472 23.8977 90.2836 24.1029C90.52 24.3081 90.7959 24.4646 91.0951 24.563C91.3943 24.6615 91.7105 24.6999 92.0251 24.676C92.4075 24.6968 92.7886 24.6173 93.1294 24.4458C93.4701 24.2743 93.7583 24.0169 93.9644 23.7H94.0133V24.5H95.48V20.652C95.48 18.9 94.1274 17.884 92.3918 17.884L92.3592 17.868ZM92.1718 23.348C91.6748 23.348 90.9822 23.1 90.9822 22.5C90.9822 21.7 91.8459 21.428 92.6118 21.428C93.0958 21.4163 93.5742 21.5323 93.997 21.764C93.9458 22.1984 93.736 22.6 93.4064 22.8942C93.0768 23.1884 92.6498 23.3553 92.2044 23.364L92.1718 23.348ZM100.825 18.1L99.0814 22.436H99.0325L97.2237 18.1H95.594L98.3074 24.164L96.7592 27.532H98.3481L102.52 18.1H100.825ZM87.1362 24.5H88.6518V14.5H87.1362V24.5Z" fill="white"/>
<path d="M8.50665 6.53195C8.23814 6.84365 8.10114 7.24432 8.12368 7.65195V25.348C8.09596 25.7563 8.2336 26.1588 8.50665 26.468L8.56368 26.532L18.6592 16.62V16.38L8.56368 6.47595L8.50665 6.53195Z" fill="url(#paint0_linear_136_5476)"/>
<path d="M22 19.9239L18.6593 16.6199V16.3799L22 13.0759L22.0734 13.1239L26.0741 15.3479C27.2149 15.9799 27.2149 17.0199 26.0741 17.6599L22.0897 19.8839L22 19.9239Z" fill="url(#paint1_linear_136_5476)"/>
<path d="M22.0978 19.876L18.6592 16.5L8.50665 26.468C8.7369 26.6692 9.03161 26.785 9.33968 26.7952C9.64775 26.8054 9.94975 26.7095 10.1933 26.524L22.0978 19.876Z" fill="url(#paint2_linear_136_5476)"/>
<path d="M22.0978 13.1239L10.1933 6.48393C9.95134 6.29586 9.64957 6.19757 9.34108 6.20635C9.03259 6.21513 8.73713 6.33041 8.50665 6.53193L18.6592 16.4999L22.0978 13.1239Z" fill="url(#paint3_linear_136_5476)"/>
<path opacity="0.2" d="M22 19.804L10.1933 26.404C9.95861 26.5779 9.67256 26.672 9.3785 26.672C9.08445 26.672 8.7984 26.5779 8.56369 26.404L8.50665 26.46L8.56369 26.524C8.7984 26.6979 9.08445 26.792 9.3785 26.792C9.67256 26.792 9.95861 26.6979 10.1933 26.524L22.0978 19.876L22 19.804Z" fill="black"/>
<path opacity="0.12" d="M8.50669 26.356C8.24496 26.0387 8.1167 25.6352 8.14817 25.228V25.348C8.12044 25.7563 8.25808 26.1589 8.53113 26.468L8.58817 26.412L8.50669 26.356Z" fill="black"/>
<path opacity="0.12" d="M26.0741 17.54L22 19.804L22.0733 19.876L26.0741 17.652C26.3102 17.554 26.5151 17.3952 26.6671 17.1925C26.8191 16.9897 26.9126 16.7505 26.9378 16.5C26.8868 16.7277 26.7821 16.9404 26.6321 17.121C26.4821 17.3017 26.2909 17.4452 26.0741 17.54Z" fill="black"/>
<path opacity="0.25" d="M10.1933 6.59593L26.074 15.4599C26.2909 15.5548 26.482 15.6983 26.6321 15.8789C26.7821 16.0596 26.8868 16.2723 26.9377 16.4999C26.9126 16.2494 26.819 16.0102 26.667 15.8075C26.515 15.6047 26.3102 15.446 26.074 15.3479L10.1933 6.48393C9.06069 5.84393 8.12366 6.37193 8.12366 7.65193V7.77193C8.1481 6.49193 9.06069 5.96393 10.1933 6.59593Z" fill="white"/>
<path d="M34.3116 11.916H33.7168V10.316H34.222C34.4493 10.0737 34.6202 9.78581 34.7229 9.47224C34.8256 9.15866 34.8577 8.82691 34.8168 8.49998V6.09998H38.0761V10.308H38.622V11.908H38.019V10.9H34.3116V11.916ZM35.4442 8.49998C35.4806 9.1426 35.3187 9.78106 34.9798 10.332H37.4242V6.69198H35.4442V8.49998Z" fill="white" stroke="white" stroke-width="0.2" stroke-miterlimit="10"/>
<path d="M43.5192 10.276C43.2846 10.507 43.0058 10.6903 42.6989 10.8153C42.392 10.9404 42.063 11.0047 41.7307 11.0047C41.3984 11.0047 41.0694 10.9404 40.7625 10.8153C40.4556 10.6903 40.1768 10.507 39.9422 10.276C39.476 9.798 39.2158 9.16177 39.2158 8.49999C39.2158 7.83822 39.476 7.20199 39.9422 6.72399C40.1768 6.49299 40.4556 6.30971 40.7625 6.18466C41.0694 6.05961 41.3984 5.99524 41.7307 5.99524C42.063 5.99524 42.392 6.05961 42.6989 6.18466C43.0058 6.30971 43.2846 6.49299 43.5192 6.72399C43.7546 6.95759 43.94 7.23505 44.0646 7.54006C44.1891 7.84506 44.2503 8.17144 44.2444 8.49999C44.254 8.82902 44.1946 9.15649 44.0699 9.46202C43.9451 9.76755 43.7577 10.0446 43.5192 10.276ZM40.3985 9.87599C40.5702 10.0511 40.7766 10.1897 41.0051 10.2833C41.2335 10.3768 41.4791 10.4234 41.7266 10.42C41.9743 10.4248 42.2204 10.3789 42.449 10.2853C42.6777 10.1916 42.884 10.0522 43.0548 9.87599C43.4064 9.50089 43.6015 9.00975 43.6015 8.49999C43.6015 7.99023 43.4064 7.49909 43.0548 7.12399C42.884 6.94776 42.6777 6.80837 42.449 6.71471C42.2204 6.62105 41.9743 6.57517 41.7266 6.57999C41.4791 6.57662 41.2335 6.62316 41.0051 6.71673C40.7766 6.81031 40.5702 6.94892 40.3985 7.12399C40.0521 7.5016 39.8604 7.99179 39.8604 8.49999C39.8604 9.00819 40.0521 9.49838 40.3985 9.87599Z" fill="white" stroke="white" stroke-width="0.2" stroke-miterlimit="10"/>
<path d="M47.406 11.004C47.0763 11.0091 46.749 10.9486 46.4437 10.8262C46.1384 10.7039 45.8615 10.5222 45.6297 10.292C45.1595 9.80958 44.8971 9.16766 44.8971 8.49999C44.8971 7.83231 45.1595 7.19039 45.6297 6.70799C45.8653 6.47386 46.1475 6.28983 46.4587 6.16734C46.7699 6.04486 47.1034 5.98653 47.4386 5.99599C47.7797 5.98651 48.1185 6.05366 48.4291 6.1923C48.7398 6.33094 49.0141 6.53742 49.2311 6.79599L48.7993 7.21198C48.6392 7.00992 48.4321 6.84852 48.1953 6.74133C47.9585 6.63414 47.699 6.5843 47.4386 6.59599C47.1877 6.5897 46.9383 6.63403 46.7056 6.72623C46.473 6.81843 46.2621 6.95653 46.086 7.13199C45.735 7.51055 45.5405 8.00406 45.5405 8.51599C45.5405 9.02791 45.735 9.52142 46.086 9.89999C46.2621 10.0754 46.473 10.2135 46.7056 10.3057C46.9383 10.3979 47.1877 10.4423 47.4386 10.436C47.7185 10.4282 47.9934 10.3604 48.2439 10.2374C48.4944 10.1144 48.7146 9.93921 48.8889 9.72399L49.3289 10.148C49.1057 10.4106 48.8279 10.6234 48.5141 10.772C48.1675 10.931 47.7885 11.0103 47.406 11.004Z" fill="white" stroke="white" stroke-width="0.2" stroke-miterlimit="10"/>
<path d="M51.8874 10.9H51.26V6.69198H49.8911V6.09998H53.2481V6.69198H51.8874V10.9Z" fill="white" stroke="white" stroke-width="0.2" stroke-miterlimit="10"/>
<path d="M57.5667 6.09998L55.7171 10.148C55.6722 10.3103 55.5919 10.4611 55.4818 10.5899C55.3717 10.7187 55.2344 10.8225 55.0794 10.894C54.9244 10.9655 54.7554 11.0031 54.5841 11.0041C54.4128 11.0052 54.2433 10.9696 54.0874 10.9L54.2504 10.332C54.3501 10.387 54.462 10.4172 54.5763 10.42C54.6969 10.4259 54.8164 10.3952 54.9185 10.332C55.0175 10.2511 55.0933 10.1463 55.1385 10.028L55.3178 9.64398L53.6882 6.09998H54.4297L55.6356 8.85198L56.8252 6.09998H57.5667Z" fill="white" stroke="white" stroke-width="0.2" stroke-miterlimit="10"/>
<path d="M58.2756 10.9V6.09998H61.8119V10.9H61.1845V6.69198H58.903V10.9H58.2756Z" fill="white" stroke="white" stroke-width="0.2" stroke-miterlimit="10"/>
<path d="M62.9281 10.9V6.09998H63.5555V8.15598H65.9999V6.09998H66.6355V10.9H65.9999V8.73198H63.5555V10.9H62.9281Z" fill="white" stroke="white" stroke-width="0.2" stroke-miterlimit="10"/>
<path d="M71.7526 10.276C71.5172 10.5072 71.2378 10.6907 70.9302 10.8158C70.6226 10.941 70.2929 11.0054 69.96 11.0054C69.627 11.0054 69.2974 10.941 68.9898 10.8158C68.6822 10.6907 68.4027 10.5072 68.1674 10.276C67.7013 9.798 67.441 9.16177 67.441 8.49999C67.441 7.83822 67.7013 7.20199 68.1674 6.72399C68.402 6.49299 68.6808 6.30971 68.9877 6.18466C69.2946 6.05961 69.6236 5.99524 69.9559 5.99524C70.2882 5.99524 70.6172 6.05961 70.9241 6.18466C71.231 6.30971 71.5098 6.49299 71.7444 6.72399C72.2069 7.20384 72.4646 7.83937 72.4646 8.49999C72.4646 9.16061 72.2069 9.79614 71.7444 10.276H71.7526ZM68.6319 9.87599C68.8026 10.0522 69.0089 10.1916 69.2376 10.2853C69.4663 10.3789 69.7123 10.4248 69.96 10.42C70.2075 10.4234 70.4531 10.3768 70.6815 10.2833C70.91 10.1897 71.1165 10.0511 71.2881 9.87599C71.6346 9.49838 71.8263 9.00819 71.8263 8.49999C71.8263 7.99179 71.6346 7.5016 71.2881 7.12399C71.1165 6.94892 70.91 6.81031 70.6815 6.71673C70.4531 6.62316 70.2075 6.57662 69.96 6.57999C69.7123 6.57517 69.4663 6.62105 69.2376 6.71471C69.0089 6.80837 68.8026 6.94776 68.6319 7.12399C68.2803 7.49909 68.0851 7.99023 68.0851 8.49999C68.0851 9.00975 68.2803 9.50089 68.6319 9.87599Z" fill="white" stroke="white" stroke-width="0.2" stroke-miterlimit="10"/>
<path d="M75.0363 10.8999V6.09993H76.8044C77.171 6.09631 77.5256 6.2276 77.7985 6.46793C77.9346 6.58394 78.0432 6.72791 78.1164 6.88965C78.1896 7.0514 78.2257 7.22696 78.2222 7.40393C78.2242 7.61943 78.1618 7.83078 78.0429 8.01193C77.9226 8.18369 77.7562 8.31938 77.5622 8.40393C77.7974 8.4829 78.0041 8.62746 78.157 8.81993C78.3068 9.01598 78.3869 9.25486 78.3851 9.49993C78.3893 9.68435 78.352 9.86741 78.276 10.0361C78.1999 10.2048 78.087 10.3549 77.9451 10.4759C77.6623 10.7343 77.2884 10.8748 76.9022 10.8679L75.0363 10.8999ZM75.6637 8.15593H76.8044C76.9111 8.16199 77.0179 8.14427 77.1167 8.10409C77.2154 8.06392 77.3037 8.00232 77.3748 7.92393C77.5129 7.79099 77.592 7.60984 77.5948 7.41993C77.6025 7.22942 77.5354 7.04328 77.4074 6.89993C77.3389 6.82532 77.2544 6.76654 77.16 6.72781C77.0656 6.68908 76.9636 6.67136 76.8614 6.67593H75.6881L75.6637 8.15593ZM75.6637 10.3079H76.9348C77.0451 10.3116 77.1549 10.2912 77.2564 10.2483C77.3578 10.2055 77.4483 10.1411 77.5214 10.0599C77.6621 9.91239 77.7407 9.71803 77.7414 9.51593C77.7365 9.3155 77.6551 9.12421 77.5133 8.97993C77.4347 8.89895 77.3398 8.83504 77.2345 8.79232C77.1293 8.74961 77.016 8.72903 76.9022 8.73193H75.6637V10.3079Z" fill="white" stroke="white" stroke-width="0.2" stroke-miterlimit="10"/>
</g>
<defs>
<linearGradient id="paint0_linear_136_5476" x1="17.7629" y1="7.46795" x2="4.3412" y2="21.1382" gradientUnits="userSpaceOnUse">
<stop stop-color="#00A0FF"/>
<stop offset="0.01" stop-color="#00A1FF"/>
<stop offset="0.26" stop-color="#00BEFF"/>
<stop offset="0.51" stop-color="#00D2FF"/>
<stop offset="0.76" stop-color="#00DFFF"/>
<stop offset="1" stop-color="#00E3FF"/>
</linearGradient>
<linearGradient id="paint1_linear_136_5476" x1="27.5652" y1="16.4999" x2="7.85486" y2="16.4999" gradientUnits="userSpaceOnUse">
<stop stop-color="#FFE000"/>
<stop offset="0.41" stop-color="#FFBD00"/>
<stop offset="0.78" stop-color="#FFA500"/>
<stop offset="1" stop-color="#FF9C00"/>
</linearGradient>
<linearGradient id="paint2_linear_136_5476" x1="20.2318" y1="18.34" x2="2.02675" y2="36.8741" gradientUnits="userSpaceOnUse">
<stop stop-color="#FF3A44"/>
<stop offset="1" stop-color="#C31162"/>
</linearGradient>
<linearGradient id="paint3_linear_136_5476" x1="5.94813" y1="0.643927" x2="14.0748" y2="8.92105" gradientUnits="userSpaceOnUse">
<stop stop-color="#32A071"/>
<stop offset="0.07" stop-color="#2DA771"/>
<stop offset="0.48" stop-color="#15CF74"/>
<stop offset="0.8" stop-color="#06E775"/>
<stop offset="1" stop-color="#00F076"/>
</linearGradient>
<clipPath id="clip0_136_5476">
<rect width="110" height="32" fill="white" transform="translate(0 0.5)"/>
</clipPath>
</defs>
</svg>
