<svg width="220" height="59" viewBox="0 0 220 59" fill="none" xmlns="http://www.w3.org/2000/svg">
<path d="M31.7695 17.0714V58.0581H23.6916V54.6333C21.5953 57.2111 18.5593 58.5 14.5836 58.5C11.8368 58.5 9.34291 57.874 7.10205 56.6219C4.89734 55.3698 3.16249 53.5838 1.8975 51.2638C0.632498 48.9438 0 46.2555 0 43.199C0 40.1425 0.632498 37.4543 1.8975 35.1343C3.16249 32.8143 4.89734 31.0282 7.10205 29.7762C9.34291 28.5241 11.8368 27.8981 14.5836 27.8981C18.3063 27.8981 21.2158 29.0949 23.3121 31.4886V17.0714H31.7695ZM16.0474 51.4295C18.1798 51.4295 19.9508 50.693 21.3604 49.22C22.7699 47.7101 23.4747 45.7032 23.4747 43.199C23.4747 40.6949 22.7699 38.7063 21.3604 37.2333C19.9508 35.7235 18.1798 34.9686 16.0474 34.9686C13.8788 34.9686 12.0898 35.7235 10.6802 37.2333C9.27062 38.7063 8.56583 40.6949 8.56583 43.199C8.56583 45.7032 9.27062 47.7101 10.6802 49.22C12.0898 50.693 13.8788 51.4295 16.0474 51.4295Z" fill="#2C307E"/>
<path d="M53.4759 58.5C50.4038 58.5 47.6388 57.8555 45.1811 56.5667C42.7596 55.2409 40.8621 53.4181 39.4886 51.0981C38.1152 48.7781 37.4285 46.1451 37.4285 43.199C37.4285 40.253 38.1152 37.62 39.4886 35.3C40.8621 32.98 42.7596 31.1755 45.1811 29.8867C47.6388 28.5609 50.4038 27.8981 53.4759 27.8981C56.548 27.8981 59.2949 28.5609 61.7164 29.8867C64.138 31.1755 66.0355 32.98 67.4089 35.3C68.7824 37.62 69.4691 40.253 69.4691 43.199C69.4691 46.1451 68.7824 48.7781 67.4089 51.0981C66.0355 53.4181 64.138 55.2409 61.7164 56.5667C59.2949 57.8555 56.548 58.5 53.4759 58.5ZM53.4759 51.4295C55.6445 51.4295 57.4155 50.693 58.7889 49.22C60.1985 47.7101 60.9032 45.7032 60.9032 43.199C60.9032 40.6949 60.1985 38.7063 58.7889 37.2333C57.4155 35.7235 55.6445 34.9686 53.4759 34.9686C51.3073 34.9686 49.5183 35.7235 48.1087 37.2333C46.6991 38.7063 45.9944 40.6949 45.9944 43.199C45.9944 45.7032 46.6991 47.7101 48.1087 49.22C49.5183 50.693 51.3073 51.4295 53.4759 51.4295Z" fill="#2C307E"/>
<path d="M89.2178 58.5C86.1096 58.5 83.3085 57.8555 80.8147 56.5667C78.3569 55.2409 76.4233 53.4181 75.0137 51.0981C73.6403 48.7781 72.9536 46.1451 72.9536 43.199C72.9536 40.253 73.6403 37.62 75.0137 35.3C76.4233 32.98 78.3569 31.1755 80.8147 29.8867C83.3085 28.5609 86.1096 27.8981 89.2178 27.8981C92.29 27.8981 94.9645 28.5609 97.2415 29.8867C99.5547 31.1755 101.235 33.0352 102.283 35.4657L95.7235 39.0562C94.2056 36.3311 92.0189 34.9686 89.1636 34.9686C86.9589 34.9686 85.1337 35.7051 83.688 37.1781C82.2423 38.6511 81.5194 40.6581 81.5194 43.199C81.5194 45.74 82.2423 47.747 83.688 49.22C85.1337 50.693 86.9589 51.4295 89.1636 51.4295C92.055 51.4295 94.2417 50.067 95.7235 47.3419L102.283 50.9876C101.235 53.3444 99.5547 55.1857 97.2415 56.5114C94.9645 57.8371 92.29 58.5 89.2178 58.5Z" fill="#2C307E"/>
<path d="M117.405 58.5C114.116 58.5 111.549 57.6162 109.706 55.8486C107.863 54.0441 106.941 51.5032 106.941 48.2257V17.0714H115.399V47.7286C115.399 48.9806 115.706 49.9565 116.32 50.6562C116.971 51.319 117.874 51.6505 119.031 51.6505C119.465 51.6505 119.898 51.5952 120.332 51.4847C120.802 51.3743 121.163 51.2454 121.416 51.0981L121.796 57.7819C120.386 58.2606 118.923 58.5 117.405 58.5Z" fill="#2C307E"/>
<path d="M155.332 28.34V58.0581H147.308V54.5228C146.188 55.8117 144.851 56.806 143.296 57.5057C141.742 58.1686 140.062 58.5 138.255 58.5C134.423 58.5 131.387 57.3768 129.147 55.1305C126.906 52.8841 125.785 49.5514 125.785 45.1324V28.34H134.243V43.8619C134.243 48.6492 136.212 51.0428 140.152 51.0428C142.176 51.0428 143.802 50.38 145.031 49.0543C146.26 47.6917 146.875 45.6847 146.875 43.0333V28.34H155.332Z" fill="#2C307E"/>
<path d="M180.407 27.8981C183.118 27.8981 185.576 28.5425 187.78 29.8314C190.021 31.0835 191.774 32.8695 193.039 35.1895C194.304 37.4727 194.937 40.1425 194.937 43.199C194.937 46.2555 194.304 48.9438 193.039 51.2638C191.774 53.547 190.021 55.333 187.78 56.6219C185.576 57.874 183.118 58.5 180.407 58.5C176.395 58.5 173.341 57.2111 171.245 54.6333V58.0581H163.167V17.0714H171.625V31.4886C173.757 29.0949 176.685 27.8981 180.407 27.8981ZM178.944 51.4295C181.112 51.4295 182.883 50.693 184.257 49.22C185.666 47.7101 186.371 45.7032 186.371 43.199C186.371 40.6949 185.666 38.7063 184.257 37.2333C182.883 35.7235 181.112 34.9686 178.944 34.9686C176.775 34.9686 174.986 35.7235 173.576 37.2333C172.203 38.7063 171.516 40.6949 171.516 43.199C171.516 45.7032 172.203 47.7101 173.576 49.22C174.986 50.693 176.775 51.4295 178.944 51.4295Z" fill="#2C307E"/>
<path d="M203.291 0.5C203.291 9.65215 195.81 17.0714 186.582 17.0714C195.81 17.0714 203.291 24.4907 203.291 33.6429C203.291 24.4907 210.772 17.0714 220 17.0714C210.772 17.0714 203.291 9.65215 203.291 0.5Z" fill="#CD4A4A"/>
</svg>
