<svg width="26" height="26" viewBox="0 0 26 26" fill="none" xmlns="http://www.w3.org/2000/svg">
<path fill-rule="evenodd" clip-rule="evenodd" d="M13 25.8571C20.1008 25.8571 25.8572 20.1008 25.8572 13C25.8572 5.89919 20.1008 0.142853 13 0.142853C5.89922 0.142853 0.142883 5.89919 0.142883 13C0.142883 15.7416 1.00102 18.2829 2.46334 20.3697L1.31171 24.6883L5.70644 23.5896C7.77883 25.0197 10.2916 25.8571 13 25.8571ZM7.91848 5.38208C8.42774 5.37767 8.92031 5.37341 9.25005 6.03572C9.53536 6.60878 9.88621 7.59264 10.3003 8.76794L10.3057 8.78319C10.4024 9.05731 10.5534 9.4853 10.355 9.76898C10.1528 10.058 9.70206 10.6395 9.37561 11.0162C9.29199 11.1127 9.12441 11.3335 9.35278 11.6933C9.40955 11.7828 9.45855 11.8744 9.51254 11.9754C9.73002 12.3822 10.0285 12.9406 11.2423 14.1172C12.4674 15.3048 14.0044 15.9885 14.5713 16.216C14.7253 16.3033 15.0955 16.4203 15.3438 16.1892C15.458 16.0829 15.6731 15.8082 15.9077 15.5085C16.1831 15.1566 16.4855 14.7703 16.6831 14.5821C16.689 14.5766 16.6952 14.571 16.7015 14.5653C16.8336 14.4441 17.043 14.2521 17.4281 14.4063C17.7652 14.5412 19.0587 15.1637 20.0357 15.6339C20.2278 15.7263 20.4077 15.8129 20.5657 15.8887C20.721 15.938 20.9465 16.1193 20.9465 16.4826C20.9465 17.3024 20.3661 19.7298 17.5452 19.7801C14.7244 19.8303 11.3265 18.355 8.74047 15.5031C6.06086 12.548 5.26565 10.5726 5.26565 8.76793C5.26565 6.56596 6.80584 5.3828 7.79361 5.3828C7.83529 5.3828 7.87694 5.38244 7.91848 5.38208Z" fill="white"/>
</svg>
